<svg width="128" height="128" viewBox="0 0 128 128" xmlns="http://www.w3.org/2000/svg">
  <defs>
    <linearGradient id="bg" x1="0" y1="0" x2="1" y2="1">
      <stop offset="0" stop-color="#2b2150"/>
      <stop offset="1" stop-color="#171327"/>
    </linearGradient>
    <linearGradient id="arrow" x1="0" y1="1" x2="0" y2="0">
      <stop offset="0" stop-color="#2ea043"/>
      <stop offset="1" stop-color="#56d364"/>
    </linearGradient>
  </defs>
  <rect width="128" height="128" rx="28" fill="url(#bg)"/>
  <g transform="translate(28 26)">
    <path fill="#8b7bd8" d="M36 2 6 18v36l30 16 30-16V18L36 2Zm0 7.6 21.6 11.5L36 32.6 14.4 21.1 36 9.6ZM12 26.8l20 10.6v22.6L12 49.4V26.8Zm48 0v22.6L40 60V37.4l20-10.6Z"/>
  </g>
  <g transform="translate(78 70)">
    <circle cx="14" cy="14" r="20" fill="#171327"/>
    <circle cx="14" cy="14" r="16" fill="url(#arrow)"/>
    <path fill="#171327" d="M14 6 6 15h5v8h6v-8h5L14 6Z"/>
  </g>
</svg>
